<svg width="416" height="416" viewBox="0 0 416 416" fill="none" xmlns="http://www.w3.org/2000/svg">
<path d="M208 416C322.875 416 416 322.875 416 208C416 93.1248 322.875 0 208 0C93.1248 0 0 93.1248 0 208C0 322.875 93.1248 416 208 416Z" fill="#FF92B7"/>
<path d="M208 304C203.757 304 199.687 302.314 196.686 299.314C193.686 296.313 192 292.243 192 288V224H128C123.757 224 119.687 222.314 116.686 219.314C113.686 216.313 112 212.243 112 208C112 203.757 113.686 199.687 116.686 196.686C119.687 193.686 123.757 192 128 192H192V128C192 123.757 193.686 119.687 196.686 116.686C199.687 113.686 203.757 112 208 112C212.243 112 216.313 113.686 219.314 116.686C222.314 119.687 224 123.757 224 128V192H288C292.243 192 296.313 193.686 299.314 196.686C302.314 199.687 304 203.757 304 208C304 212.243 302.314 216.313 299.314 219.314C296.313 222.314 292.243 224 288 224H224V288C224 292.243 222.314 296.313 219.314 299.314C216.313 302.314 212.243 304 208 304Z" fill="#EC407A"/>
</svg>
