<svg width="416" height="416" viewBox="0 0 416 416" fill="none" xmlns="http://www.w3.org/2000/svg">
<path d="M208 416C322.875 416 416 322.875 416 208C416 93.1248 322.875 0 208 0C93.1248 0 0 93.1248 0 208C0 322.875 93.1248 416 208 416Z" fill="#FF92B7"/>
<path d="M275.882 275.882C272.882 278.883 268.812 280.568 264.569 280.569C260.325 280.568 256.255 278.883 253.255 275.882L208 230.627L162.745 275.882C159.745 278.883 155.675 280.568 151.431 280.569C147.188 280.568 143.118 278.883 140.118 275.882C137.117 272.882 135.432 268.812 135.431 264.569C135.432 260.325 137.117 256.255 140.118 253.255L185.373 208L140.118 162.745C137.117 159.745 135.432 155.675 135.431 151.431C135.432 147.188 137.117 143.118 140.118 140.118C143.118 137.117 147.188 135.432 151.431 135.431C155.675 135.432 159.745 137.117 162.745 140.118L208 185.373L253.255 140.118C256.255 137.117 260.325 135.432 264.569 135.431C268.812 135.432 272.882 137.117 275.882 140.118C278.882 143.118 280.568 147.188 280.569 151.431C280.568 155.675 278.882 159.745 275.882 162.745L230.627 208L275.882 253.255C278.882 256.255 280.568 260.325 280.569 264.569C280.568 268.812 278.882 272.882 275.882 275.882Z" fill="#EC407A"/>
</svg>
